<svg xmlns="http://www.w3.org/2000/svg" viewBox="0 0 64 64" width="64" height="64"><rect width="64" height="64" rx="13" ry="13" fill="#080808"/><g fill="#B76E79" transform="translate(7.359 49.107) scale(0.024265 -0.024265)"><path d="M1609 0H836V78Q890 82 963.0 97.5Q1036 113 1036 136Q1036 144 1034.5 154.0Q1033 164 1026 181L905 475H415Q398 434 377.5 379.0Q357 324 342 281Q323 225 319.5 200.0Q316 175 316 165Q316 133 364.5 110.5Q413 88 526 78V0H-56V78Q-23 80 18.5 88.5Q60 97 84 112Q125 136 153.5 171.0Q182 206 201 254Q317 535 433.5 817.0Q550 1099 691 1439H891Q1087 957 1198.0 677.0Q1309 397 1387 213Q1400 183 1420.0 158.5Q1440 134 1477 112Q1505 96 1542.0 88.0Q1579 80 1609 78ZM864 574 658 1088 455 574Z" transform="translate(0.000 0)"/><path d="M534 166Q534 87 475.5 29.0Q417 -29 337 -29Q256 -29 197.5 28.5Q139 86 139 166Q139 246 197.5 304.5Q256 363 337 363Q417 363 475.5 304.0Q534 245 534 166Z" transform="translate(37.684 0)"/></g></svg>
